<?xml version="1.0" encoding="UTF-8"?>
<svg width="250px" height="250px" viewBox="0 0 250 250" version="1.1" xmlns="http://www.w3.org/2000/svg" xmlns:xlink="http://www.w3.org/1999/xlink">
    <!-- Generator: Sketch 40.3 (33839) - http://www.bohemiancoding.com/sketch -->
    <title>Artboard Copy 8</title>
    <desc>Created with Sketch.</desc>
    <defs></defs>
    <g id="quick" stroke="none" stroke-width="1" fill="none" fill-rule="evenodd">
        <g id="Artboard-Copy-8" fill="#80A8CC">
            <g id="askAnotherIcon" transform="translate(8.000000, 25.000000)">
                <path d="M0,198.553968 C0,198.553968 7.93586421,196.508684 12.4111118,189.174841 C16.8760061,181.830759 39.5576689,149.047331 42.1641318,145.422647 C47.9413167,143.057386 86.5594165,126.984368 102.990227,111.594818 C89.0597573,111.768885 70.214021,107.529847 62.4722827,99.2770342 C72.1604561,96.4919659 106.096241,101.291601 119.842938,95.7112252 C119.842938,95.7112252 125.3587,91.8407994 136.071858,77.6134008 C123.168961,83.4318386 90.4393449,85.1981043 82.3637101,72.992952 C92.1372989,71.8384798 101.98595,70.6840075 114.632601,69.6344873 C120.968868,69.1148468 141.577267,66.6062375 145.314836,65.3109759 C149.95315,58.9754575 155.763983,50.5716163 155.763983,50.5716163 C155.763983,50.5716163 119.472805,54.8720894 111.384229,42.6720567 C125.837544,42.3213634 160.032163,37.997852 163.953505,34.4166842 C167.890377,30.8355164 185.853488,9.16164381 231.693069,1.0035439 C235.930189,0.21768363 202.654432,-2.5776239 174.576071,6.79126398 C146.49771,16.1575921 143.728181,15.4382867 125.897076,25.7799007 C108.060794,36.1010362 94.1795027,44.5355951 84.4188556,53.8097701 C74.6452668,63.0839452 59.9667652,78.2379934 53.5010807,90.873193 C47.0328078,103.503273 40.8181926,120.794759 37.7768879,137.190312 C29.6753696,157.072321 0,198.553968 0,198.553968 L0,198.553968 Z" id="Shape"></path>
            </g>
        </g>
    </g>
</svg>