<?xml version="1.0" encoding="UTF-8"?>
<svg width="250px" height="250px" viewBox="0 0 250 250" version="1.1" xmlns="http://www.w3.org/2000/svg" xmlns:xlink="http://www.w3.org/1999/xlink">
    <!-- Generator: Sketch 40.3 (33839) - http://www.bohemiancoding.com/sketch -->
    <title>Artboard Copy</title>
    <desc>Created with Sketch.</desc>
    <defs></defs>
    <g id="quick" stroke="none" stroke-width="1" fill="none" fill-rule="evenodd">
        <g id="Artboard-Copy" fill="#FDBE41">
            <path d="M246.078937,97.333003 C245.496909,95.5436032 243.951149,94.2414832 242.088657,93.9707722 L163.893781,82.6090311 L128.931454,11.753131 C128.097664,10.0666014 126.381357,9 124.499915,9 C122.618474,9 120.902166,10.0693085 120.068376,11.7558381 L85.1006345,82.6090311 L6.90846595,93.9707722 C5.0459742,94.2414832 3.50292143,95.5436032 2.92089276,97.333003 C2.34157119,99.1224028 2.82343679,101.085058 4.17157763,102.398006 L60.750179,157.54996 L47.3932977,235.428104 C47.0738587,237.282475 47.8372638,239.155795 49.3586596,240.260296 C50.2195207,240.882931 51.2373941,241.20237 52.2633888,241.20237 C53.0511578,241.20237 53.8389269,241.015579 54.5617253,240.636584 L124.499915,203.8632 L194.432691,240.633877 C196.10027,241.505566 198.11436,241.364797 199.635756,240.257589 C201.157152,239.15038 201.920557,237.27706 201.603825,235.425397 L188.246944,157.547253 L244.828252,102.395299 C246.173686,101.085058 246.660966,99.1224028 246.078937,97.333003 L246.078937,97.333003 Z" id="Shape"></path>
        </g>
    </g>
</svg>